HIERARCHY
ROOT CG
{
	OFFSET -0.000000 -0.000000 27.772259
	CHANNELS 6 Xposition Yposition Zposition Xrotation Yrotation Zrotation
	JOINT Pelvis
	{
		OFFSET 0.000000 0.000000 0.000000
		CHANNELS 3 Xrotation Yrotation Zrotation
		JOINT Spine
		{
			OFFSET 0.000021 -10.490843 -0.495483
			CHANNELS 3 Xrotation Yrotation Zrotation
			JOINT Spine1
			{
				OFFSET 0.000071 -22.678980 0.018061
				CHANNELS 3 Xrotation Yrotation Zrotation
				JOINT Spine2
				{
					OFFSET 0.000071 -22.678967 0.018061
					CHANNELS 3 Xrotation Yrotation Zrotation
					JOINT Spine3
					{
						OFFSET 0.000071 -22.678982 0.018059
						CHANNELS 3 Xrotation Yrotation Zrotation
						JOINT Neck
						{
							OFFSET 0.000069 -22.678986 -1.289251
							CHANNELS 3 Xrotation Yrotation Zrotation
							JOINT Neck1
							{
								OFFSET 0.000051 -16.255905 0.012947
								CHANNELS 3 Xrotation Yrotation Zrotation
								JOINT Head
								{
									OFFSET 0.000033 -10.784607 -0.287502
									CHANNELS 3 Xrotation Yrotation Zrotation
									JOINT Jaw01
									{
										OFFSET 0.000003 7.782959 5.073944
										CHANNELS 3 Xrotation Yrotation Zrotation
										JOINT Jaw02
										{
											OFFSET 0.000129 -34.927139 -18.883980
											CHANNELS 3 Xrotation Yrotation Zrotation
											End Site
											{
												OFFSET -0.000200 8.372803 -38.812450
											}
										}
									}
									JOINT Nose
									{
										OFFSET 0.000090 -25.700912 7.222265
										CHANNELS 3 Xrotation Yrotation Zrotation
										End Site
										{
											OFFSET -0.000092 0.641281 -21.715439
										}
									}
									JOINT L_EyeSocket
									{
										OFFSET 7.352397 -19.832687 14.164183
										CHANNELS 3 Xrotation Yrotation Zrotation
										JOINT L_Eye
										{
											OFFSET -0.000868 -0.001053 0.016003
											CHANNELS 3 Xrotation Yrotation Zrotation
											End Site
											{
												OFFSET -0.001505 -0.001846 0.027969
											}
										}
										JOINT L_Eyelid_Top
										{
											OFFSET -0.001004 -0.002625 0.032516
											CHANNELS 3 Xrotation Yrotation Zrotation
											End Site
											{
												OFFSET -0.013218 0.005753 0.024086
											}
										}
										JOINT L_Eyelid_Bottom
										{
											OFFSET -0.001194 -0.002777 0.035381
											CHANNELS 3 Xrotation Yrotation Zrotation
											End Site
											{
												OFFSET -0.010032 0.008636 -0.024754
											}
										}
									}
									JOINT R_EyeSocket
									{
										OFFSET -7.352180 -19.832779 14.164206
										CHANNELS 3 Xrotation Yrotation Zrotation
										JOINT R_Eye
										{
											OFFSET 0.000875 -0.001068 0.015991
											CHANNELS 3 Xrotation Yrotation Zrotation
											End Site
											{
												OFFSET 0.001505 -0.001846 0.027962
											}
										}
										JOINT R_Eyelid_Top
										{
											OFFSET 0.001021 -0.002625 0.032516
											CHANNELS 3 Xrotation Yrotation Zrotation
											End Site
											{
												OFFSET 0.013214 0.005753 0.024078
											}
										}
										JOINT R_Eyelid_Bottom
										{
											OFFSET 0.001170 -0.002762 0.035366
											CHANNELS 3 Xrotation Yrotation Zrotation
											End Site
											{
												OFFSET 0.010029 0.008636 -0.024746
											}
										}
									}
								}
								JOINT Neck_Fat
								{
									OFFSET 0.000078 -9.595100 -17.491512
									CHANNELS 3 Xrotation Yrotation Zrotation
									End Site
									{
										OFFSET -0.000091 15.369423 -0.000007
									}
								}
							}
						}
						JOINT L_Clavicle
						{
							OFFSET 4.567149 -11.666077 -3.750029
							CHANNELS 3 Xrotation Yrotation Zrotation
							JOINT L_UpperArm
							{
								OFFSET 20.725664 0.000023 -0.000032
								CHANNELS 3 Xrotation Yrotation Zrotation
								JOINT L_Forearm
								{
									OFFSET 5.265114 -0.585732 -20.155697
									CHANNELS 3 Xrotation Yrotation Zrotation
									JOINT L_Hand
									{
										OFFSET 2.653055 -10.877701 -16.383667
										CHANNELS 3 Xrotation Yrotation Zrotation
										JOINT L_Finger0
										{
											OFFSET -4.206129 -4.328926 -5.034346
											CHANNELS 3 Xrotation Yrotation Zrotation
											JOINT L_Finger01
											{
												OFFSET 0.084278 -1.788536 -4.181065
												CHANNELS 3 Xrotation Yrotation Zrotation
												End Site
												{
													OFFSET 3.261873 3.094681 -0.685818
												}
											}
										}
										JOINT L_Finger1
										{
											OFFSET -1.039085 -6.775749 -3.499998
											CHANNELS 3 Xrotation Yrotation Zrotation
											JOINT L_Finger11
											{
												OFFSET 1.320347 -3.040665 -6.425793
												CHANNELS 3 Xrotation Yrotation Zrotation
												End Site
												{
													OFFSET -1.244606 6.832069 -2.013330
												}
											}
										}
										JOINT L_Finger2
										{
											OFFSET 2.531319 -5.656479 -3.286415
											CHANNELS 3 Xrotation Yrotation Zrotation
											JOINT L_Finger21
											{
												OFFSET 1.991673 -2.402008 -5.957748
												CHANNELS 3 Xrotation Yrotation Zrotation
												End Site
												{
													OFFSET -2.793091 5.800865 -1.944178
												}
											}
										}
										JOINT L_Finger3
										{
											OFFSET 5.474087 -3.302322 -2.655975
											CHANNELS 3 Xrotation Yrotation Zrotation
											JOINT L_Finger31
											{
												OFFSET 2.026951 -1.267525 -5.961166
												CHANNELS 3 Xrotation Yrotation Zrotation
												End Site
												{
													OFFSET -4.375191 4.343643 -1.800320
												}
											}
										}
										JOINT L_Finger4
										{
											OFFSET 4.825741 1.085915 -2.321970
											CHANNELS 3 Xrotation Yrotation Zrotation
											JOINT L_Finger41
											{
												OFFSET 3.358269 -1.829636 -3.744434
												CHANNELS 3 Xrotation Yrotation Zrotation
												End Site
												{
													OFFSET -3.843307 2.955185 -2.267633
												}
											}
										}
									}
								}
							}
						}
						JOINT R_Clavicle
						{
							OFFSET -4.567070 -11.666107 -3.750036
							CHANNELS 3 Xrotation Yrotation Zrotation
							JOINT R_UpperArm
							{
								OFFSET -20.725672 -0.000107 0.000038
								CHANNELS 3 Xrotation Yrotation Zrotation
								JOINT R_Forearm
								{
									OFFSET -5.265284 -0.585785 -20.155655
									CHANNELS 3 Xrotation Yrotation Zrotation
									JOINT R_Hand
									{
										OFFSET -2.653109 -10.877747 -16.383663
										CHANNELS 3 Xrotation Yrotation Zrotation
										JOINT R_Finger0
										{
											OFFSET 4.206133 -4.328873 -5.034388
											CHANNELS 3 Xrotation Yrotation Zrotation
											JOINT R_Finger01
											{
												OFFSET -0.084318 -1.788544 -4.181051
												CHANNELS 3 Xrotation Yrotation Zrotation
												End Site
												{
													OFFSET -3.261902 3.094658 -0.685791
												}
											}
										}
										JOINT R_Finger1
										{
											OFFSET 1.039127 -6.775703 -3.499994
											CHANNELS 3 Xrotation Yrotation Zrotation
											JOINT R_Finger11
											{
												OFFSET -1.320362 -3.040680 -6.425779
												CHANNELS 3 Xrotation Yrotation Zrotation
												End Site
												{
													OFFSET 1.244530 6.832085 -2.013342
												}
											}
										}
										JOINT R_Finger2
										{
											OFFSET -2.531284 -5.656471 -3.286409
											CHANNELS 3 Xrotation Yrotation Zrotation
											JOINT R_Finger21
											{
												OFFSET -1.991699 -2.402023 -5.957708
												CHANNELS 3 Xrotation Yrotation Zrotation
												End Site
												{
													OFFSET 2.793015 5.800865 -1.944197
												}
											}
										}
										JOINT R_Finger3
										{
											OFFSET -5.474079 -3.302345 -2.655947
											CHANNELS 3 Xrotation Yrotation Zrotation
											JOINT R_Finger31
											{
												OFFSET -2.026985 -1.267540 -5.961157
												CHANNELS 3 Xrotation Yrotation Zrotation
												End Site
												{
													OFFSET 4.375137 4.343689 -1.800358
												}
											}
										}
										JOINT R_Finger4
										{
											OFFSET -4.825760 1.085907 -2.321926
											CHANNELS 3 Xrotation Yrotation Zrotation
											JOINT R_Finger41
											{
												OFFSET -3.358299 -1.829666 -3.744390
												CHANNELS 3 Xrotation Yrotation Zrotation
												End Site
												{
													OFFSET 3.843262 2.955223 -2.267666
												}
											}
										}
									}
								}
							}
						}
					}
				}
			}
		}
		JOINT Tail01
		{
			OFFSET -0.000049 10.922326 -0.017508
			CHANNELS 3 Xrotation Yrotation Zrotation
			JOINT Tail02
			{
				OFFSET -0.000100 21.986111 0.000013
				CHANNELS 3 Xrotation Yrotation Zrotation
				JOINT Tail03
				{
					OFFSET -0.000100 21.986118 0.000002
					CHANNELS 3 Xrotation Yrotation Zrotation
					JOINT Tail04
					{
						OFFSET -0.000100 21.986122 0.000004
						CHANNELS 3 Xrotation Yrotation Zrotation
						JOINT Tail05
						{
							OFFSET -0.000100 21.986099 0.000010
							CHANNELS 3 Xrotation Yrotation Zrotation
							JOINT Tail06
							{
								OFFSET -0.000100 21.986099 0.000006
								CHANNELS 3 Xrotation Yrotation Zrotation
								JOINT Tail07
								{
									OFFSET -0.000100 21.986099 0.000000
									CHANNELS 3 Xrotation Yrotation Zrotation
									JOINT Tail08
									{
										OFFSET -0.000100 21.984848 0.000050
										CHANNELS 3 Xrotation Yrotation Zrotation
										JOINT Tail09
										{
											OFFSET -0.000103 21.926025 -1.606211
											CHANNELS 3 Xrotation Yrotation Zrotation
											JOINT Tail10
											{
												OFFSET -0.000105 21.750092 -3.203882
												CHANNELS 3 Xrotation Yrotation Zrotation
												End Site
												{
													OFFSET -0.000053 4.767395 21.461668
												}
											}
										}
									}
								}
							}
						}
					}
				}
			}
		}
		JOINT L_Thigh
		{
			OFFSET 24.788780 0.000110 -0.000034
			CHANNELS 3 Xrotation Yrotation Zrotation
			JOINT L_Calf
			{
				OFFSET 4.720823 4.161343 -21.049969
				CHANNELS 3 Xrotation Yrotation Zrotation
				JOINT L_Foot
				{
					OFFSET 2.154083 21.114443 -11.949743
					CHANNELS 3 Xrotation Yrotation Zrotation
					JOINT L_Toe0
					{
						OFFSET 4.557531 9.251856 -8.735286
						CHANNELS 3 Xrotation Yrotation Zrotation
						End Site
						{
							OFFSET 4.555584 -12.646029 1.018752
						}
					}
					JOINT L_Toe1
					{
						OFFSET 2.346270 5.845610 -11.687160
						CHANNELS 3 Xrotation Yrotation Zrotation
						End Site
						{
							OFFSET 5.347996 -12.298262 1.365644
						}
					}
					JOINT L_Toe2
					{
						OFFSET -0.356033 3.902456 -12.541145
						CHANNELS 3 Xrotation Yrotation Zrotation
						End Site
						{
							OFFSET 3.916277 -12.806116 1.542549
						}
					}
					JOINT L_Toe3
					{
						OFFSET -4.603458 3.183916 -12.435249
						CHANNELS 3 Xrotation Yrotation Zrotation
						End Site
						{
							OFFSET 3.810904 -12.587413 2.957583
						}
					}
					JOINT L_Toe4
					{
						OFFSET -7.144381 6.231468 -10.072764
						CHANNELS 3 Xrotation Yrotation Zrotation
						End Site
						{
							OFFSET 3.810902 -12.587412 2.957585
						}
					}
				}
			}
		}
		JOINT R_Thigh
		{
			OFFSET -24.788780 -0.000112 0.000034
			CHANNELS 3 Xrotation Yrotation Zrotation
			JOINT R_Calf
			{
				OFFSET -4.720936 4.161307 -21.049952
				CHANNELS 3 Xrotation Yrotation Zrotation
				JOINT R_Foot
				{
					OFFSET -2.154314 21.114407 -11.949730
					CHANNELS 3 Xrotation Yrotation Zrotation
					JOINT R_Toe0
					{
						OFFSET -4.557631 9.251808 -8.735270
						CHANNELS 3 Xrotation Yrotation Zrotation
						End Site
						{
							OFFSET -4.555466 -12.646067 1.018756
						}
					}
					JOINT R_Toe1
					{
						OFFSET -2.346346 5.845581 -11.687157
						CHANNELS 3 Xrotation Yrotation Zrotation
						End Site
						{
							OFFSET -5.347878 -12.298304 1.365654
						}
					}
					JOINT R_Toe2
					{
						OFFSET 0.355967 3.902464 -12.541145
						CHANNELS 3 Xrotation Yrotation Zrotation
						End Site
						{
							OFFSET -3.916157 -12.806145 1.542559
						}
					}
					JOINT R_Toe3
					{
						OFFSET 4.603399 3.183960 -12.435266
						CHANNELS 3 Xrotation Yrotation Zrotation
						End Site
						{
							OFFSET -3.810780 -12.587443 2.957591
						}
					}
					JOINT R_Toe4
					{
						OFFSET 7.144300 6.231529 -10.072779
						CHANNELS 3 Xrotation Yrotation Zrotation
						End Site
						{
							OFFSET -3.810781 -12.587446 2.957584
						}
					}
				}
			}
		}
	}
}
MOTION
Frames: 4
Frame Time: 0.033333
-0.000000 -0.000000 48.000000 0.000000 -0.000000 -0.000109 -13.074572 -3.625257 0.216261 14.101384 2.434771 -4.987303 0.782103 0.808485 2.333840 -0.390343 0.607610 2.309786 -5.810953 0.648285 2.336788 4.027329 0.075630 -0.245929 -0.208877 -0.024250 -0.236120 3.485726 -1.326470 -2.503608 -9.112522 0.347302 -0.406883 0.000003 -0.000000 0.000000 0.000021 0.000000 -0.000000 -0.000000 0.000000 -0.000001 0.000106 -0.000066 0.000012 0.000003 -0.000003 -0.000007 -0.000003 -0.000004 0.000005 0.000001 0.000000 -0.000001 0.000103 0.000067 -0.000035 0.000004 0.000000 0.000006 0.000002 -0.000001 -0.000000 -0.110956 -0.000000 -0.000000 0.000177 4.019561 0.519589 26.658252 -0.980397 -27.339338 -11.955868 2.196680 -2.973489 -60.923867 -16.487653 -15.727250 4.814077 45.237904 32.496879 0.108387 -0.103820 0.046713 31.239844 13.715238 -10.715240 -21.103471 -3.971410 -2.962979 30.256498 6.344526 -6.448702 -32.343241 -14.390469 -8.157542 20.872382 -11.244739 -8.185823 -18.722361 -18.085472 -5.094116 18.635613 -29.682588 -0.393823 0.555232 0.804613 0.101805 0.001237 13.600914 -0.708080 51.597240 18.896475 12.434141 -42.084969 -10.065655 8.009049 -28.468387 0.940462 -12.539849 23.168579 -40.495655 -23.635098 73.197307 28.850695 -49.374198 54.440019 -13.061113 13.768545 57.038910 -12.907332 0.531368 49.052766 -21.219970 10.720547 39.706492 -20.341823 2.365327 27.828525 -15.834081 9.453157 37.792205 -34.843418 8.051126 18.805509 -17.628483 2.382754 68.506108 -58.651599 31.638522 -1.634498 0.054627 0.343957 -1.707065 0.007590 6.334466 -1.946898 0.173449 4.488035 -0.073059 0.598350 4.062751 4.563176 0.436663 5.642342 6.437697 0.450787 3.730286 7.080943 -0.545752 -2.674239 4.617340 -1.919395 -12.669047 0.765613 -3.425491 -19.193132 4.280798 -3.227686 -20.773337 -43.437124 -12.315707 -19.387888 42.500972 4.577323 8.522807 -47.806529 31.841953 -6.218730 45.858201 26.415480 5.832705 56.430637 32.129012 2.701662 67.673788 38.171455 1.612639 74.130966 37.984970 -15.474528 46.840747 38.432867 -2.984471 -37.366855 5.573997 -7.384450 26.091193 -2.055806 -5.644269 -53.507077 -1.589156 27.215439 6.063390 26.117171 -5.603919 10.996532 7.513762 -3.931412 16.301283 -9.964487 -1.750191 18.235418 -15.310805 15.214463 -6.000033 -24.357042 11.013591 
-0.224248 -0.000000 48.467484 0.000000 -0.000000 -0.000109 -13.099296 -3.251161 -1.094800 14.545279 1.883946 -5.032927 0.755122 1.099498 3.183952 -0.264063 0.897866 3.147711 -5.686538 0.945386 3.180621 3.215921 0.073730 -0.616220 -0.652223 -0.044482 -0.607708 3.314951 -1.628571 -2.925857 -9.366948 0.342682 -0.396103 0.000004 -0.000000 0.000000 0.000021 0.000000 0.000000 -0.000000 0.000000 -0.000001 0.000106 -0.000066 0.000012 0.000000 -0.000003 -0.000007 0.000003 -0.000004 0.000002 0.000000 0.000000 -0.000001 0.000103 0.000067 -0.000035 0.000004 0.000002 0.000006 0.000003 -0.000002 0.000000 -0.098785 -0.000000 -0.000001 -0.000049 2.756935 2.415325 28.122565 -2.720284 -29.153484 -13.396704 2.503374 -3.300921 -62.122059 -15.607865 -16.307473 4.814074 45.237897 32.496869 0.108381 -0.103822 0.046718 31.239848 13.715238 -10.715236 -21.103466 -3.971410 -2.962978 30.256495 6.344528 -6.448700 -32.343247 -14.390468 -8.157543 20.872380 -11.244733 -8.185818 -18.722368 -18.085470 -5.094121 18.635616 -29.682592 -0.393826 0.555233 0.804614 0.101800 0.001360 14.049609 0.720264 45.076588 18.587996 13.126749 -41.572076 -9.912451 7.959417 -28.843906 -1.123480 -12.854928 27.816311 -37.815144 -20.254953 69.445545 29.089636 -46.534120 55.234582 -14.694880 11.496907 53.234433 -12.137118 0.094671 49.701955 -21.069558 10.809597 36.427421 -18.860971 1.639823 28.829043 -15.940821 10.771547 34.015906 -32.260049 6.286983 18.161094 -15.863101 3.642767 63.758115 -57.448892 27.910067 -1.634686 0.059564 0.371733 -1.689621 0.005496 6.468097 -1.919183 0.158276 4.940796 -0.743730 0.538296 4.371658 3.823840 0.263430 6.148129 6.170162 0.321228 4.892529 7.991916 -0.551993 -0.510434 6.078117 -1.355046 -10.049175 2.431532 -3.060424 -17.486261 5.458217 -3.608711 -20.932865 -48.510186 -14.372646 -16.308422 41.554021 4.409916 8.376751 -43.985284 31.158350 -8.693032 43.797915 23.676180 5.347707 54.417825 29.310152 2.269656 65.305064 35.195941 1.449608 70.861266 35.007940 -14.804073 44.388252 35.640047 -3.085253 -33.193278 4.839380 -7.877261 23.715699 -1.763628 -5.173839 -55.184677 -2.759684 27.014865 6.096081 26.106527 -5.603961 11.029005 7.503182 -3.930526 16.334191 -9.974944 -1.748308 18.268558 -15.321185 15.216751 -5.968585 -24.367383 11.011128 
-0.473340 0.000000 49.003376 0.000000 -0.000000 -0.000109 -13.109074 -2.536636 -2.415196 14.881599 1.064156 -4.893315 0.721026 1.384480 3.979371 0.138734 1.206625 3.929890 -5.285473 1.260352 3.969762 2.120790 0.082255 -0.989528 -1.364798 -0.052984 -0.982760 3.102922 -1.901322 -3.301217 -9.640685 0.338580 -0.388140 0.000003 0.000000 0.000000 0.000020 -0.000000 -0.000000 0.000001 0.000000 -0.000001 0.000106 -0.000066 0.000009 0.000004 -0.000003 -0.000010 -0.000000 -0.000006 0.000003 0.000000 0.000000 -0.000001 0.000104 0.000067 -0.000041 0.000006 -0.000001 -0.000002 0.000003 -0.000001 -0.000007 -0.086088 -0.000000 -0.000000 -0.000108 1.460252 4.296191 28.690425 -4.327105 -30.924907 -13.958320 2.625216 -3.426546 -63.786659 -14.464859 -16.747515 4.814063 45.237897 32.496876 0.108377 -0.103830 0.046717 31.239837 13.715236 -10.715241 -21.103466 -3.971400 -2.962980 30.256492 6.344524 -6.448701 -32.343241 -14.390468 -8.157543 20.872382 -11.244739 -8.185818 -18.722368 -18.085468 -5.094115 18.635613 -29.682588 -0.393818 0.555224 0.804626 0.101800 0.001482 14.654072 2.104109 36.980550 18.352399 14.051198 -38.667183 -9.052926 7.652464 -30.905486 -3.979829 -13.234145 32.661705 -34.790764 -16.908459 65.946986 29.165191 -43.881090 56.277549 -16.502587 9.234903 49.661445 -11.386258 -0.267474 50.620991 -21.034666 10.948220 33.424494 -17.452242 1.051903 30.041948 -16.165427 12.108502 30.584580 -29.703670 4.829993 17.548863 -14.194118 4.892470 59.771989 -56.241714 24.841719 -1.634869 0.064801 0.401196 -1.672662 0.003118 6.629584 -1.877621 0.141816 5.442173 -1.314903 0.478675 4.728315 3.152225 0.092605 6.618701 5.801140 0.164730 5.935381 8.647444 -0.550437 1.479652 7.264566 -0.752285 -7.515932 4.081788 -2.621792 -15.602307 6.876228 -3.900598 -20.707626 -52.839873 -17.456054 -13.176039 39.901829 4.123744 8.115495 -40.159419 30.937704 -11.534527 38.867502 17.141635 3.788997 49.651896 22.571467 0.828109 59.841343 28.053291 0.504533 63.537022 27.735030 -14.064428 38.729491 28.928477 -3.875430 -28.496063 3.697841 -8.595674 20.019713 -1.348901 -4.419873 -56.027731 -3.751013 26.691741 6.089134 26.108562 -5.604153 11.021973 7.505192 -3.930874 16.324731 -9.972285 -1.748983 18.259136 -15.318596 15.215980 -5.977224 -24.364827 11.011520 
-0.740241 0.000000 49.539268 0.000000 -0.000000 -0.000109 -13.101516 -1.760253 -3.895317 15.282222 0.232693 -4.614527 0.678803 1.663070 4.795607 0.573592 1.527945 4.728276 -4.852265 1.587553 4.775287 0.900894 0.099104 -1.361022 -2.134297 -0.053452 -1.356377 2.875348 -2.133120 -3.715006 -9.916980 0.334395 -0.379252 0.000003 -0.000000 -0.000000 0.000021 -0.000000 -0.000000 -0.000000 0.000000 -0.000003 0.000106 -0.000066 0.000014 0.000004 -0.000003 -0.000007 0.000002 -0.000006 0.000007 0.000000 0.000000 -0.000003 0.000103 0.000067 -0.000033 0.000003 -0.000003 0.000006 0.000002 -0.000000 -0.000001 -0.073172 -0.000000 -0.000001 -0.000265 0.231684 6.206840 28.966224 -6.220258 -32.617797 -14.628392 2.772246 -3.574940 -65.339905 -13.232226 -16.980298 4.814077 45.237897 32.496872 0.108376 -0.103830 0.046717 31.239834 13.715232 -10.715239 -21.103464 -3.971404 -2.962978 30.256495 6.344527 -6.448705 -32.343244 -14.390468 -8.157544 20.872377 -11.244734 -8.185815 -18.723514 -18.086435 -5.094586 18.635613 -29.682585 -0.393828 0.555231 0.804621 0.101799 0.001476 14.946954 3.576983 29.084574 17.784402 14.276712 -34.978570 -7.984736 7.200613 -33.481362 -6.547396 -13.592263 36.059543 -31.896389 -14.643285 61.913240 29.076556 -40.822313 56.636595 -18.049975 6.967145 45.674998 -10.520673 -0.614692 50.989049 -20.780982 10.946767 30.008416 -15.794345 0.475566 30.837392 -16.088060 13.413366 27.024256 -26.840992 3.480566 16.770191 -12.368548 6.193059 55.183226 -54.599316 21.395440 -1.635038 0.070410 0.432749 -1.651338 0.001373 6.860429 -1.795940 0.127523 6.058036 -1.667019 0.420078 5.184411 2.629934 -0.067332 7.004239 5.137485 -0.023377 6.645304 8.617885 -0.614052 3.035274 7.791157 -0.108843 -5.132834 5.737011 -2.019326 -13.153998 9.018544 -3.923925 -19.468105 -56.114222 -20.282382 -9.645217 37.228585 3.677256 7.676059 -36.533859 29.739511 -14.342004 33.895005 10.757352 1.708513 44.902200 15.963300 -1.132141 54.553394 21.017179 -1.111324 56.718588 20.439751 -14.357975 33.297087 22.317168 -5.334764 -23.758724 2.403323 -9.043480 15.770891 -0.933876 -3.523576 -56.387409 -4.607261 26.281279 6.064846 26.116239 -5.604361 10.997446 7.512899 -3.931733 16.301085 -9.965066 -1.750492 18.235289 -15.311440 15.214185 -5.999930 -24.357609 11.013006 
